<svg width="272" height="192" viewBox="0 0 272 192" fill="none" xmlns="http://www.w3.org/2000/svg">
<g clip-path="url(#clip0_951_15027)">
<path d="M83.8736 83.8842C83.8736 115.958 65.1445 127.157 42.0409 127.157C18.9374 127.157 0.208252 115.958 0.208252 83.8842C0.208252 51.81 42.0409 11.0065 42.0409 11.0065C42.0409 11.0065 83.8736 51.81 83.8736 83.8842Z" fill="#F2F2F2"/>
<path d="M40.5177 122.251L40.9461 95.4078L58.7761 62.1989L41.0133 91.1971L41.2058 79.1272L53.4943 55.1008L41.2569 75.9332L41.6031 54.2249L54.762 35.0971L41.6577 50.8114L41.8741 11.0064L40.5141 63.7011L40.6257 61.5272L27.2471 40.679L40.4113 65.7003L39.1646 89.9445L39.1276 89.3008L23.7043 67.3611L39.0808 91.5741L38.9248 94.6061L38.8971 94.6518L38.9097 94.9008L35.7471 156.41H39.9727L40.4797 124.639L55.8184 100.486L40.5177 122.251Z" fill="#3F3D56"/>
<path d="M271.792 160.415C271.792 171.511 215.725 191.172 146.563 191.172C77.4004 191.172 21.3333 171.511 21.3333 160.415C21.3333 149.319 77.4004 150.989 146.563 150.989C215.725 150.989 271.792 149.319 271.792 160.415Z" fill="#3F3D56"/>
<path opacity="0.1" d="M271.792 160.415C271.792 171.511 215.725 191.172 146.563 191.172C77.4004 191.172 21.3333 171.511 21.3333 160.415C21.3333 149.319 77.4004 150.989 146.563 150.989C215.725 150.989 271.792 149.319 271.792 160.415Z" fill="black"/>
<path d="M146.563 180.506C215.725 180.506 271.792 171.511 271.792 160.415C271.792 149.319 215.725 140.324 146.563 140.324C77.4004 140.324 21.3333 149.319 21.3333 160.415C21.3333 171.511 77.4004 180.506 146.563 180.506Z" fill="#3F3D56"/>
<path opacity="0.1" d="M151.116 169.592C167.532 169.592 180.84 166.76 180.84 163.267C180.84 159.774 167.532 156.942 151.116 156.942C134.7 156.942 121.393 159.774 121.393 163.267C121.393 166.76 134.7 169.592 151.116 169.592Z" fill="black"/>
<path d="M117.251 36.6991C123.785 36.6991 129.081 31.307 129.081 24.6556C129.081 18.0041 123.785 12.6121 117.251 12.6121C110.718 12.6121 105.422 18.0041 105.422 24.6556C105.422 31.307 110.718 36.6991 117.251 36.6991Z" fill="#2F2E41"/>
<path opacity="0.3" d="M94.3887 25.2622C96.4738 25.2622 98.1642 23.5413 98.1642 21.4185C98.1642 19.2957 96.4738 17.5748 94.3887 17.5748C92.3036 17.5748 90.6133 19.2957 90.6133 21.4185C90.6133 23.5413 92.3036 25.2622 94.3887 25.2622Z" fill="#2F2E41"/>
<path opacity="0.5" d="M99.7464 16.889C101.832 16.889 103.522 15.1681 103.522 13.0453C103.522 10.9225 101.832 9.20166 99.7464 9.20166C97.6613 9.20166 95.9709 10.9225 95.9709 13.0453C95.9709 15.1681 97.6613 16.889 99.7464 16.889Z" fill="#2F2E41"/>
<path d="M105.106 8.51583C107.191 8.51583 108.881 6.79496 108.881 4.67216C108.881 2.54936 107.191 0.828491 105.106 0.828491C103.021 0.828491 101.33 2.54936 101.33 4.67216C101.33 6.79496 103.021 8.51583 105.106 8.51583Z" fill="#2F2E41"/>
<path opacity="0.3" d="M105.106 8.51583C107.191 8.51583 108.881 6.79496 108.881 4.67216C108.881 2.54936 107.191 0.828491 105.106 0.828491C103.021 0.828491 101.33 2.54936 101.33 4.67216C101.33 6.79496 103.021 8.51583 105.106 8.51583Z" fill="white"/>
<path d="M116.965 94.6107C123.499 94.6107 128.795 89.2187 128.795 82.5672C128.795 75.9158 123.499 70.5237 116.965 70.5237C110.432 70.5237 105.136 75.9158 105.136 82.5672C105.136 89.2187 110.432 94.6107 116.965 94.6107Z" fill="#E9573A"/>
<path opacity="0.3" d="M108.192 108.147C110.278 108.147 111.968 106.426 111.968 104.303C111.968 102.18 110.278 100.459 108.192 100.459C106.107 100.459 104.417 102.18 104.417 104.303C104.417 106.426 106.107 108.147 108.192 108.147Z" fill="#E9573A"/>
<path opacity="0.5" d="M101.562 100.778C103.647 100.778 105.337 99.057 105.337 96.9342C105.337 94.8114 103.647 93.0906 101.562 93.0906C99.4769 93.0906 97.7866 94.8114 97.7866 96.9342C97.7866 99.057 99.4769 100.778 101.562 100.778Z" fill="#E9573A"/>
<path d="M94.9302 93.4093C97.0153 93.4093 98.7057 91.6884 98.7057 89.5656C98.7057 87.4428 97.0153 85.7219 94.9302 85.7219C92.8451 85.7219 91.1548 87.4428 91.1548 89.5656C91.1548 91.6884 92.8451 93.4093 94.9302 93.4093Z" fill="#E9573A"/>
<path opacity="0.3" d="M94.9302 93.4093C97.0153 93.4093 98.7057 91.6884 98.7057 89.5656C98.7057 87.4428 97.0153 85.7219 94.9302 85.7219C92.8451 85.7219 91.1548 87.4428 91.1548 89.5656C91.1548 91.6884 92.8451 93.4093 94.9302 93.4093Z" fill="white"/>
<path d="M136.033 148.469C136.033 148.469 135.961 152.768 135.6 153.907C135.239 155.046 135.6 156.479 135.6 156.479L134.228 160.153H139.1C139.1 160.153 140.255 154.788 140.255 154.311C140.255 153.833 139.569 149.792 139.569 149.792L136.033 148.469Z" fill="#FFB9B9"/>
<path d="M139.786 159.859C139.786 159.859 138.559 156.442 133.362 159.859C133.362 159.859 131.305 162.945 132.46 163.9C133.615 164.856 135.6 166.142 137.26 165.407C138.92 164.672 139.57 163.864 139.786 162.357C139.922 161.53 139.922 160.686 139.786 159.859Z" fill="#2F2E41"/>
<path d="M162.305 148.469C162.305 148.469 162.377 152.768 162.738 153.907C163.099 155.046 162.738 156.479 162.738 156.479L164.109 160.153H159.237C159.237 160.153 158.082 154.788 158.082 154.311C158.082 153.833 158.768 149.792 158.768 149.792L162.305 148.469Z" fill="#FFB9B9"/>
<path d="M158.551 159.859C158.551 159.859 159.778 156.442 164.975 159.859C164.975 159.859 167.032 162.945 165.878 163.9C164.723 164.856 162.738 166.142 161.078 165.407C159.418 164.672 158.768 163.864 158.551 162.357C158.415 161.53 158.415 160.686 158.551 159.859Z" fill="#2F2E41"/>
<path d="M134.804 67.4907C134.804 67.4907 138.341 72.4508 138.774 74.0307C139.207 75.6105 141.914 75.4636 141.733 74.0307C141.553 72.5977 136.825 64.9188 136.825 64.9188L134.804 67.4907Z" fill="#FFB9B9"/>
<path d="M163.387 65.874C163.387 65.874 158.407 74.4715 159.67 75.4268C160.933 76.3821 165.733 67.9315 165.733 67.9315L163.387 65.874Z" fill="#FFB9B9"/>
<path d="M158.732 72.5978H150.503C148.987 72.5978 144.007 73.0019 143.213 72.5978C142.419 72.1936 139.46 72.2304 139.46 72.2304C139.46 72.2304 133.433 86.2656 135.057 97.4718C136.681 108.678 131.628 147.44 134.01 148.616C136.392 149.792 138.522 151.261 140.579 151.335C142.636 151.408 146.461 150.49 146.894 149.865C147.327 149.24 149.457 94.7896 149.457 94.7896C149.457 94.7896 150.214 148.506 151.622 149.718C153.029 150.931 157.071 151.739 159.598 151.335C162.124 150.931 164.722 149.498 165.228 148.542C165.733 147.587 163.459 120.619 163.459 120.619C163.459 120.619 166.96 79.2113 161.186 74.0307L158.732 72.5978Z" fill="#2F2E41"/>
<path d="M146.643 29.9409C146.643 29.9409 148.447 35.9665 144.874 37.6933C141.302 39.4202 147.942 53.4922 147.942 53.4922C147.942 53.4922 157.217 41.4042 157.217 38.7588L155.665 37.179C155.665 37.179 152.634 31.9984 153.572 30.3818C154.51 28.7652 146.643 29.9409 146.643 29.9409Z" fill="#FFB9B9"/>
<path opacity="0.1" d="M146.643 29.9409C146.643 29.9409 148.447 35.9665 144.874 37.6933C141.302 39.4202 147.942 53.4922 147.942 53.4922C147.942 53.4922 157.217 41.4042 157.217 38.7588L155.665 37.179C155.665 37.179 152.634 31.9984 153.572 30.3818C154.51 28.7652 146.643 29.9409 146.643 29.9409Z" fill="black"/>
<path d="M149.277 50.4794C149.277 50.4794 147.112 44.7109 147.365 42.5432C147.617 40.3755 147.017 36.8311 146.09 36.7294C145.163 36.6278 135.636 39.7876 134.661 40.4489C133.687 41.1103 132.821 54.5577 132.821 54.5577L137.079 64.5514C137.079 64.5514 137.44 72.7447 139.461 73.1121C141.482 73.4795 160.573 74.5083 161.187 73.8102C161.8 73.1121 168.08 54.0433 168.08 54.0433L169.487 42.8739C169.487 42.8739 167.719 40.6327 165.842 40.1183C163.966 39.6039 157.903 37.3994 157.217 37.3259C156.531 37.2524 154.366 37.6566 154.185 38.3179C154.005 38.9793 149.277 50.4794 149.277 50.4794Z" fill="#D0CDE1"/>
<path d="M150.522 33.7804C154.608 33.7804 157.92 30.4082 157.92 26.2484C157.92 22.0886 154.608 18.7164 150.522 18.7164C146.436 18.7164 143.123 22.0886 143.123 26.2484C143.123 30.4082 146.436 33.7804 150.522 33.7804Z" fill="#FFB9B9"/>
<path d="M153.07 12.3244C151.685 10.6233 148.854 10.4394 147.268 11.9474C146.841 12.354 146.503 12.8537 146.057 13.2391C145.623 13.5873 145.142 13.8695 144.628 14.0767C142.936 14.8307 141.14 15.3664 139.562 16.3431C137.984 17.3198 136.602 18.8654 136.406 20.7349C136.303 21.7236 136.537 22.7341 136.359 23.7118C136.081 25.2444 134.871 26.3879 133.859 27.557C132.897 28.6675 132.032 30.2504 132.72 31.5548C133.305 32.6643 134.739 32.9935 135.545 33.9489C136.475 35.0519 136.356 36.7217 135.896 38.0979C135.435 39.474 134.686 40.7671 134.496 42.2082C134.184 44.5801 135.464 46.905 137.132 48.5921C137.894 49.364 138.772 50.06 139.802 50.3763C140.579 50.597 141.399 50.6071 142.181 50.4057C142.963 50.2043 143.679 49.7983 144.26 49.228C144.828 48.6456 145.253 47.9348 145.5 47.1534C145.747 46.372 145.81 45.5422 145.682 44.7317C145.542 43.8408 145.182 42.9665 145.275 42.0693C145.467 40.2264 147.442 39.0639 147.909 37.2729C148.388 35.4404 147.18 33.6556 146.469 31.903C145.572 29.6926 145.445 27.245 145.424 24.8535C145.412 23.4853 145.55 21.8832 146.683 21.1467C147.423 20.6653 148.365 20.7181 149.241 20.6522C150.262 20.5752 151.278 20.3148 152.298 20.4109C153.318 20.507 154.395 21.0814 154.672 22.0852C154.982 23.2089 154.198 24.35 154.206 25.5173C154.209 26.0896 154.405 26.6473 154.408 27.2196C154.418 28.8819 152.905 30.07 152.057 31.4903C151.477 32.5046 151.212 33.6744 151.299 34.8449C151.386 36.0154 151.82 37.1314 152.544 38.0452C153.408 39.0954 154.711 39.9541 154.861 41.3157C154.945 42.0795 154.629 42.8209 154.439 43.5647C154.249 44.3085 154.219 45.1968 154.75 45.7431C155.11 46.1135 155.645 46.2355 156.152 46.3042C157.459 46.4804 158.787 46.4149 160.071 46.1106C160.402 46.0576 160.713 45.9146 160.971 45.6968C161.609 45.0677 161.21 43.9526 161.504 43.0998C161.792 42.2664 162.688 41.8316 163.527 41.6086C164.367 41.3856 165.274 41.2681 165.959 40.7256C166.72 40.1225 167.054 39.0819 167.011 38.101C166.968 37.1201 166.596 36.1852 166.163 35.3079C166.062 35.1478 166.012 34.9591 166.022 34.7687C166.107 34.2632 166.815 34.3068 167.319 34.3006C168.648 34.2842 169.668 32.8979 169.705 31.5451C169.742 30.1924 169.034 28.9301 168.189 27.8856C167.344 26.841 166.339 25.9278 165.597 24.8044C164.33 22.8836 163.89 20.433 162.351 18.7307C161.601 17.9163 160.642 17.3324 159.582 17.0456C158.766 16.8197 157.541 17.1026 156.905 16.5107C156.656 16.2796 156.55 15.9068 156.307 15.6611C155.912 15.2617 155.371 15.1441 154.928 14.8212C154.075 14.2006 153.721 13.124 153.07 12.3244Z" fill="#2F2E41"/>
<path d="M136.033 40.7429L134.661 40.449C134.661 40.449 117.627 54.1535 116.797 55.9171C115.967 57.6807 113.729 59.2606 118.457 62.1264C123.185 64.9923 134.842 69.6217 134.842 69.6217L137.548 64.7351L124.304 57.791C124.304 57.791 127.371 53.382 133.759 54.374L136.033 40.7429Z" fill="#D0CDE1"/>
<path d="M168.296 42.3228L169.487 42.8739C169.487 42.8739 187.424 56.0641 185.294 59.3708C183.165 62.6775 165.842 70.5402 165.842 70.5402L162.775 65.6169C162.775 65.6169 163.012 65.5023 163.421 65.3034C166.006 64.0465 175.425 59.4208 174.865 59.0401C174.215 58.5992 168.765 53.6759 167.25 53.4922C165.734 53.3085 168.296 42.3228 168.296 42.3228Z" fill="#D0CDE1"/>
<path d="M185.245 97.7352C191.778 97.7352 197.074 92.3431 197.074 85.6917C197.074 79.0403 191.778 73.6482 185.245 73.6482C178.711 73.6482 173.415 79.0403 173.415 85.6917C173.415 92.3431 178.711 97.7352 185.245 97.7352Z" fill="#FF6584"/>
<path d="M194.009 111.275C196.094 111.275 197.784 109.554 197.784 107.431C197.784 105.308 196.094 103.587 194.009 103.587C191.924 103.587 190.233 105.308 190.233 107.431C190.233 109.554 191.924 111.275 194.009 111.275Z" fill="#FF6584"/>
<path opacity="0.3" d="M194.009 111.275C196.094 111.275 197.784 109.554 197.784 107.431C197.784 105.308 196.094 103.587 194.009 103.587C191.924 103.587 190.233 105.308 190.233 107.431C190.233 109.554 191.924 111.275 194.009 111.275Z" fill="white"/>
<path opacity="0.5" d="M200.642 103.909C202.727 103.909 204.418 102.188 204.418 100.065C204.418 97.9422 202.727 96.2213 200.642 96.2213C198.557 96.2213 196.867 97.9422 196.867 100.065C196.867 102.188 198.557 103.909 200.642 103.909Z" fill="#FF6584"/>
<path opacity="0.3" d="M207.276 96.5426C209.361 96.5426 211.051 94.8217 211.051 92.6989C211.051 90.5761 209.361 88.8552 207.276 88.8552C205.191 88.8552 203.5 90.5761 203.5 92.6989C203.5 94.8217 205.191 96.5426 207.276 96.5426Z" fill="#FF6584"/>
<path d="M256.856 138.956C256.856 153.791 248.195 158.968 237.509 158.968C237.262 158.968 237.015 158.966 236.771 158.96C236.274 158.95 235.785 158.926 235.299 158.889C225.655 158.198 218.164 152.753 218.164 138.956C218.164 124.675 236.1 106.649 237.431 105.33L237.434 105.328C237.483 105.277 237.509 105.254 237.509 105.254C237.509 105.254 256.856 124.125 256.856 138.956Z" fill="#E9573A"/>
<path d="M236.803 156.7L243.881 146.635L236.788 157.804L236.769 158.96C236.273 158.95 235.784 158.926 235.298 158.889L236.059 144.052L236.054 143.935L236.067 143.914L236.14 142.514L229.029 131.317L236.161 141.463L236.179 141.76L236.754 130.546L230.667 118.976L236.829 128.577L237.43 105.33L237.432 105.254V105.328L237.331 123.661L243.392 116.395L237.305 125.242L237.146 135.279L242.804 125.647L237.123 136.757L237.035 142.339L245.248 128.929L237.003 144.285L236.803 156.7Z" fill="#3F3D56"/>
<path d="M55.6103 158.986C55.6103 166.16 51.4213 168.665 46.2528 168.665C46.1333 168.665 46.0138 168.663 45.8956 168.661C45.6554 168.656 45.419 168.644 45.1838 168.626C40.5195 168.292 36.8965 165.658 36.8965 158.986C36.8965 152.078 45.5711 143.36 46.215 142.722L46.2163 142.721C46.2402 142.696 46.2528 142.685 46.2528 142.685C46.2528 142.685 55.6103 151.812 55.6103 158.986Z" fill="#E9573A"/>
<path d="M45.9122 167.567L49.3353 162.7L45.9047 168.101L45.8959 168.661C45.6557 168.656 45.4192 168.644 45.1841 168.626L45.5526 161.45L45.55 161.394L45.5563 161.384L45.5915 160.706L42.1521 155.291L45.6016 160.198L45.6104 160.341L45.8883 154.918L42.9444 149.322L45.9248 153.966L46.2153 142.722L46.2165 142.685V142.721L46.1675 151.588L49.0989 148.074L46.1549 152.352L46.0782 157.207L48.8147 152.548L46.0669 157.922L46.0241 160.622L49.9968 154.136L46.009 161.563L45.9122 167.567Z" fill="#3F3D56"/>
<path d="M218.117 163.698C218.117 170.873 213.928 173.377 208.759 173.377C208.64 173.377 208.52 173.376 208.402 173.373C208.162 173.368 207.925 173.357 207.69 173.339C203.026 173.005 199.403 170.371 199.403 163.698C199.403 156.791 208.077 148.072 208.721 147.435L208.723 147.434C208.747 147.409 208.759 147.398 208.759 147.398C208.759 147.398 218.117 156.525 218.117 163.698Z" fill="#E9573A"/>
<path d="M208.419 172.28L211.842 167.412L208.411 172.814L208.402 173.373C208.162 173.368 207.926 173.357 207.691 173.339L208.059 166.163L208.057 166.107L208.063 166.096L208.098 165.419L204.659 160.003L208.108 164.911L208.117 165.054L208.395 159.631L205.451 154.035L208.431 158.678L208.722 147.435L208.723 147.398V147.434L208.674 156.301L211.605 152.786L208.662 157.065L208.585 161.92L211.321 157.261L208.573 162.634L208.531 165.335L212.503 158.849L208.516 166.276L208.419 172.28Z" fill="#3F3D56"/>
</g>
<defs>
<clipPath id="clip0_951_15027">
<rect width="271.584" height="190.344" fill="white" transform="translate(0.208252 0.828064)"/>
</clipPath>
</defs>
</svg>
