<svg width="301" height="314" viewBox="0 0 301 314" fill="none" xmlns="http://www.w3.org/2000/svg">
<g clip-path="url(#clip0_872_5861)">
<path d="M116.55 314C180.643 314 232.6 304.819 232.6 293.493C232.6 282.168 180.643 272.986 116.55 272.986C52.4574 272.986 0.5 282.168 0.5 293.493C0.5 304.819 52.4574 314 116.55 314Z" fill="#3F3D56"/>
<path d="M187.083 226.893C249.721 226.893 300.5 176.101 300.5 113.446C300.5 50.7917 249.721 0 187.083 0C124.445 0 73.666 50.7917 73.666 113.446C73.666 176.101 124.445 226.893 187.083 226.893Z" fill="#3F3D56"/>
<path opacity="0.05" d="M187.082 207.1C238.792 207.1 280.712 165.17 280.712 113.446C280.712 61.7229 238.792 19.7927 187.082 19.7927C135.372 19.7927 93.4531 61.7229 93.4531 113.446C93.4531 165.17 135.372 207.1 187.082 207.1Z" fill="black"/>
<path opacity="0.05" d="M187.083 190.204C229.464 190.204 263.821 155.838 263.821 113.446C263.821 71.0544 229.464 36.689 187.083 36.689C144.702 36.689 110.346 71.0544 110.346 113.446C110.346 155.838 144.702 190.204 187.083 190.204Z" fill="black"/>
<path opacity="0.05" d="M187.084 168.48C217.47 168.48 242.103 143.841 242.103 113.446C242.103 83.0522 217.47 58.4128 187.084 58.4128C156.697 58.4128 132.064 83.0522 132.064 113.446C132.064 143.841 156.697 168.48 187.084 168.48Z" fill="black"/>
<path d="M74.6703 123.599C74.6703 123.599 65.7535 148.705 69.7165 157.624C73.6795 166.543 79.9544 175.132 79.9544 175.132C79.9544 175.132 77.6426 125.251 74.6703 123.599Z" fill="#D0CDE1"/>
<path opacity="0.1" d="M74.6703 123.599C74.6703 123.599 65.7535 148.705 69.7165 157.624C73.6795 166.543 79.9544 175.132 79.9544 175.132C79.9544 175.132 77.6426 125.251 74.6703 123.599Z" fill="black"/>
<path d="M80.9459 181.739C80.9459 181.739 80.2854 188.015 79.9552 188.346C79.6249 188.676 80.2854 189.337 79.9552 190.328C79.6249 191.319 79.2947 192.64 79.9552 192.97C80.6157 193.301 76.3224 222.371 76.3224 222.371C76.3224 222.371 65.7543 236.245 70.0476 258.047L71.3686 280.18C71.3686 280.18 81.6064 280.841 81.6064 277.207C81.6064 277.207 80.9459 272.912 80.9459 270.93C80.9459 268.948 82.5972 268.948 81.6064 267.957C80.6157 266.966 80.6157 266.306 80.6157 266.306C80.6157 266.306 82.2669 264.984 81.9367 264.654C81.6064 264.324 84.909 240.869 84.909 240.869C84.909 240.869 88.5418 237.236 88.5418 235.254V233.272C88.5418 233.272 90.193 228.977 90.193 228.647C90.193 228.317 99.1099 208.166 99.1099 208.166L102.743 222.701L106.706 243.512C106.706 243.512 108.687 262.342 112.65 269.609C112.65 269.609 119.586 293.393 119.586 292.733C119.586 292.072 131.144 290.42 130.814 287.447C130.484 284.474 123.879 242.852 123.879 242.852L125.53 181.078L80.9459 181.739Z" fill="#2F2E41"/>
<path d="M72.0294 278.528C72.0294 278.528 63.1126 296.036 69.0571 296.697C75.0017 297.357 77.3135 297.357 79.9555 294.715C81.3999 293.27 84.3249 291.331 86.6799 289.871C88.0753 289.02 89.2025 287.792 89.9323 286.329C90.6621 284.866 90.965 283.227 90.8061 281.6C90.6319 279.984 90.0282 278.652 88.5421 278.528C84.579 278.198 79.9555 274.564 79.9555 274.564L72.0294 278.528Z" fill="#2F2E41"/>
<path d="M121.236 291.411C121.236 291.411 112.32 308.919 118.264 309.58C124.209 310.241 126.52 310.241 129.163 307.598C130.607 306.153 133.532 304.215 135.887 302.754C137.282 301.903 138.41 300.675 139.139 299.212C139.869 297.749 140.172 296.11 140.013 294.483C139.839 292.867 139.235 291.535 137.749 291.411C133.786 291.081 129.163 287.447 129.163 287.447L121.236 291.411Z" fill="#2F2E41"/>
<path d="M111.812 94.9477C119.479 94.9477 125.695 88.7307 125.695 81.0615C125.695 73.3924 119.479 67.1753 111.812 67.1753C104.145 67.1753 97.9297 73.3924 97.9297 81.0615C97.9297 88.7307 104.145 94.9477 111.812 94.9477Z" fill="#FFB8B8"/>
<path d="M102.888 85.624C102.888 85.624 92.9722 103.874 92.1789 103.874C91.3856 103.874 110.028 109.826 110.028 109.826C110.028 109.826 115.184 92.3688 115.978 90.7818L102.888 85.624Z" fill="#FFB8B8"/>
<path d="M118.1 105.596C118.1 105.596 98.2846 94.6944 96.303 95.0247C94.3215 95.355 73.1853 113.854 73.5155 121.452C73.8458 129.05 76.4878 141.603 76.4878 141.603C76.4878 141.603 77.4786 176.618 79.4601 176.949C81.4416 177.279 79.1299 183.225 79.7904 183.225C80.4509 183.225 126.026 183.225 126.356 182.234C126.686 181.243 118.1 105.596 118.1 105.596Z" fill="#D0CDE1"/>
<path d="M129.162 184.051C129.162 184.051 135.437 203.211 130.152 202.55C124.868 201.889 122.557 186.033 122.557 186.033L129.162 184.051Z" fill="#FFB8B8"/>
<path d="M112.32 104.439C112.32 104.439 100.101 107.082 102.083 123.599C104.064 140.116 107.697 156.633 107.697 156.633L119.916 183.39L121.237 188.345L130.154 186.033L123.549 147.714C123.549 147.714 121.237 106.752 118.265 105.43C116.391 104.631 114.353 104.291 112.32 104.439Z" fill="#D0CDE1"/>
<path opacity="0.1" d="M104.889 156.138L120.081 183.225L107.281 154.682L104.889 156.138Z" fill="black"/>
<path d="M125.633 76.9726L125.679 75.9114L127.789 76.4368C127.767 76.0962 127.671 75.7645 127.507 75.4647C127.344 75.1648 127.118 74.904 126.844 74.7003L129.092 74.5745C127.205 71.8933 124.795 69.6224 122.007 67.8988C119.219 66.1752 116.11 65.0348 112.869 64.5464C108.007 63.8414 102.593 64.8615 99.2585 68.4711C97.6413 70.2219 96.6251 72.4483 95.9022 74.7198C94.5708 78.9033 94.2995 83.8903 97.0757 87.2908C99.8973 90.7469 104.826 91.424 109.266 91.8517C110.828 92.0022 112.466 92.1422 113.914 91.5359C114.075 89.8748 113.862 88.1987 113.291 86.6305C113.054 86.145 112.94 85.6081 112.961 85.068C113.158 83.7467 114.92 83.4138 116.244 83.5923C117.568 83.7708 119.159 84.0439 120.029 83.03C120.628 82.3316 120.593 81.3146 120.672 80.3977C120.888 77.9016 125.61 77.4958 125.633 76.9726Z" fill="#2F2E41"/>
<path d="M210.783 296.315C219.716 296.315 226.959 289.071 226.959 280.135C226.959 271.199 219.716 263.956 210.783 263.956C201.849 263.956 194.607 271.199 194.607 280.135C194.607 289.071 201.849 296.315 210.783 296.315Z" fill="#E9573A"/>
<path d="M20.8142 290.671C29.7477 290.671 36.9898 283.427 36.9898 274.491C36.9898 265.555 29.7477 258.312 20.8142 258.312C11.8807 258.312 4.63867 265.555 4.63867 274.491C4.63867 283.427 11.8807 290.671 20.8142 290.671Z" fill="#E9573A"/>
<path d="M20.8138 264.708C27.2542 264.708 32.4752 259.486 32.4752 253.044C32.4752 246.602 27.2542 241.379 20.8138 241.379C14.3733 241.379 9.15234 246.602 9.15234 253.044C9.15234 259.486 14.3733 264.708 20.8138 264.708Z" fill="#E9573A"/>
<path d="M20.813 243.261C25.3836 243.261 29.0888 239.554 29.0888 234.983C29.0888 230.411 25.3836 226.705 20.813 226.705C16.2423 226.705 12.5371 230.411 12.5371 234.983C12.5371 239.554 16.2423 243.261 20.813 243.261Z" fill="#E9573A"/>
</g>
<defs>
<clipPath id="clip0_872_5861">
<rect width="300" height="314" fill="white" transform="translate(0.5)"/>
</clipPath>
</defs>
</svg>
