<svg width="24" height="24" viewBox="0 0 24 24" fill="none" xmlns="http://www.w3.org/2000/svg">
<g id="Coupon">
<path id="Exclude" fill-rule="evenodd" clip-rule="evenodd" d="M21.06 10.24C20.43 10.58 20 11.24 20 12C20 12.76 20.43 13.42 21.06 13.76C21.66 14.09 22 14.77 22 15.46V18C22 19.1 21.1 20 20 20H4C2.9 20 2 19.1 2 18V15.46C2 14.77 2.34 14.09 2.94 13.76C3.57 13.43 4 12.76 4 12C4 11.24 3.58 10.58 2.95 10.23C2.34 9.91 2.01 9.23 2.01 8.54V5.99C2.01 4.89 2.9 4 4 4H20C21.1 4 22 4.9 22 6V8.54C22 9.23 21.66 9.91 21.06 10.24ZM10 15.5C10 16.3284 9.32843 17 8.5 17C7.67157 17 7 16.3284 7 15.5C7 14.6716 7.67157 14 8.5 14C9.32843 14 10 14.6716 10 15.5ZM11 15.5C11 16.8807 9.88071 18 8.5 18C7.11929 18 6 16.8807 6 15.5C6 14.1193 7.11929 13 8.5 13C9.88071 13 11 14.1193 11 15.5ZM15.5 10C16.3284 10 17 9.32843 17 8.5C17 7.67157 16.3284 7 15.5 7C14.6716 7 14 7.67157 14 8.5C14 9.32843 14.6716 10 15.5 10ZM15.5 11C16.8807 11 18 9.88071 18 8.5C18 7.11929 16.8807 6 15.5 6C14.1193 6 13 7.11929 13 8.5C13 9.88071 14.1193 11 15.5 11ZM8.06066 6.64645C7.8654 6.45118 7.54882 6.45118 7.35355 6.64645C7.15829 6.84171 7.15829 7.15829 7.35355 7.35355L17.6464 17.6464C17.8417 17.8417 18.1583 17.8417 18.3536 17.6464C18.5488 17.4512 18.5488 17.1346 18.3536 16.9393L8.06066 6.64645Z" fill="#111111"/>
</g>
</svg>
