<svg width="24" height="24" viewBox="0 0 24 24" fill="none" xmlns="http://www.w3.org/2000/svg">
<g id="Discount">
<g id="Vector">
<path d="M12.788 21.5024L2.99805 11.7124V13.7124C2.99805 14.2424 3.20805 14.7524 3.58805 15.1224L11.378 22.9124C12.158 23.6924 13.428 23.6924 14.208 22.9124L20.418 16.7024C21.198 15.9224 21.198 14.6524 20.418 13.8724L12.788 21.5024Z" fill="#111111"/>
<path d="M11.378 17.9124C12.158 18.6924 13.428 18.6924 14.208 17.9124L20.418 11.7024C21.198 10.9224 21.198 9.65244 20.418 8.87244L12.628 1.08244C12.248 0.712441 11.738 0.502441 11.208 0.502441H4.99805C3.89805 0.502441 2.99805 1.40244 2.99805 2.50244V8.71244C2.99805 9.24244 3.20805 9.75244 3.58805 10.1224L11.378 17.9124ZM7.24805 3.50244C7.93805 3.50244 8.49805 4.06244 8.49805 4.75244C8.49805 5.44244 7.93805 6.00244 7.24805 6.00244C6.55805 6.00244 5.99805 5.44244 5.99805 4.75244C5.99805 4.06244 6.55805 3.50244 7.24805 3.50244Z" fill="#111111"/>
</g>
</g>
</svg>
