<svg width="18" height="18" viewBox="0 0 18 18" fill="none" xmlns="http://www.w3.org/2000/svg">
<g id="Repeat_1">
<path id="Vector" d="M8.97194 4.23183V2.13933C8.97194 1.80183 8.56694 1.63683 8.33444 1.87683L5.48444 4.71933C5.33444 4.86933 5.33444 5.10183 5.48444 5.25183L8.32695 8.09433C8.56695 8.32683 8.97194 8.16183 8.97194 7.82433V5.73183C11.7694 5.73183 13.9819 8.29683 13.3669 11.1993C13.0144 12.9018 11.6344 14.2743 9.93944 14.6268C7.26194 15.1893 4.87694 13.3518 4.51694 10.8693C4.46444 10.5093 4.14944 10.2318 3.78194 10.2318C3.33194 10.2318 2.97194 10.6293 3.03194 11.0793C3.49694 14.3718 6.63194 16.8093 10.1794 16.1193C12.5194 15.6618 14.4019 13.7793 14.8594 11.4393C15.6019 7.59183 12.6769 4.23183 8.97194 4.23183Z" fill="white"/>
</g>
</svg>
