<svg width="24" height="24" viewBox="0 0 24 24" fill="none" xmlns="http://www.w3.org/2000/svg">
<path d="M2.78759 11.04C2.96366 11.0148 3.14257 11.001 3.32289 10.9985C3.67371 10.9937 4.02692 11.0321 4.37246 11.1114C4.89366 10.4663 5.50229 9.84197 6.18995 9.28835C5.871 9.12431 5.52592 9.02375 5.17576 8.99516C4.49987 8.93998 3.86274 9.15656 3.39569 9.58321C3.20997 9.75286 3.01489 10.092 2.89155 10.5135C2.8371 10.6995 2.80337 10.8786 2.78759 11.04Z" fill="#111111"/>
<path d="M3.33952 12.2185C3.41541 12.2175 3.4917 12.2193 3.56817 12.2239C3.0413 13.042 2.64304 13.8685 2.39227 14.6218C2.25428 15.0363 2.15753 15.439 2.1115 15.8134C1.85194 15.6106 1.63838 15.3757 1.47898 15.1238C1.31122 14.8587 1.20787 14.582 1.16728 14.3109C1.12679 14.0405 1.14893 13.7779 1.22823 13.5354C1.30752 13.293 1.44483 13.068 1.63729 12.8738C1.83023 12.6791 2.07714 12.5169 2.36914 12.4022C2.66134 12.2874 2.99083 12.2233 3.33952 12.2185Z" fill="#111111"/>
<path d="M22.4039 15.4284C22.2371 15.6308 22.0415 15.7952 21.8277 15.9176C21.763 15.5274 21.6378 15.0908 21.4626 14.6321C21.4199 14.5202 21.3739 14.4063 21.3247 14.2908C21.8604 13.8751 22.2781 13.3216 22.5215 12.6859L22.5222 12.684C22.5448 12.7182 22.5673 12.7539 22.5895 12.7908C22.7971 13.1358 22.9208 13.4926 22.9357 13.747C22.9725 14.3717 22.7766 14.9761 22.4039 15.4284Z" fill="#111111"/>
<path d="M21.3819 12.2497C21.2502 12.594 21.0393 12.9059 20.7685 13.1624C20.4652 12.6198 20.1024 12.0631 19.6839 11.5187C20.094 10.9667 20.339 10.3076 20.3896 9.61786C20.4672 9.65981 20.5467 9.70765 20.6267 9.76139C20.971 9.9927 21.2222 10.2651 21.3244 10.4798C21.5834 11.0242 21.6077 11.6598 21.3819 12.2497Z" fill="#111111"/>
<path d="M19.179 9.31204C19.1857 9.75095 19.0745 10.1771 18.8628 10.5486C18.4498 10.1056 17.995 9.67963 17.5002 9.28859C17.7142 8.56892 17.7081 7.80142 17.4798 7.09114C17.8934 7.20609 18.243 7.39159 18.4323 7.57746C18.9011 8.03786 19.169 8.66233 19.179 9.31204Z" fill="#111111"/>
<path d="M16.2485 7.27516C16.4132 7.67065 16.4699 8.10509 16.4163 8.53289C15.7711 8.14032 15.0725 7.81313 14.3236 7.58045C14.2357 7.01399 14.0142 6.47621 13.6774 6.01245C13.7633 5.99062 13.8546 5.97175 13.9504 5.95685C14.3647 5.8924 14.7414 5.921 14.9695 6.01058C15.5428 6.23572 16.0042 6.68844 16.2485 7.27516Z" fill="#111111"/>
<path d="M12.4572 6.45493C12.6914 6.69193 12.871 6.97321 12.9881 7.27911C12.6599 7.23229 12.3236 7.20393 11.9795 7.19602C11.5165 7.18536 11.0664 7.21394 10.6299 7.2768C10.3582 6.84892 9.99927 6.48135 9.57549 6.19919C9.64325 6.15312 9.71631 6.10771 9.79422 6.06398C10.1609 5.85814 10.5292 5.74893 10.7821 5.75001C11.4111 5.75268 12.0137 6.00599 12.4572 6.45493Z" fill="#111111"/>
<path d="M8.61085 7.05025C8.88154 7.1809 9.12277 7.35964 9.32441 7.57517C8.59097 7.80616 7.90442 8.13182 7.26958 8.52343C6.80686 8.18929 6.27974 7.95546 5.72487 7.84289C5.78453 7.75718 5.85312 7.66899 5.93038 7.58077C6.211 7.26033 6.52639 7.03076 6.76979 6.9456C7.37258 6.73469 8.03482 6.77221 8.61085 7.05025Z" fill="#111111"/>
<path d="M2.97616 17.1919C3.97784 18.9516 20.4723 18.6089 21.0775 17.0738C21.6826 15.5387 18.1115 8.35676 11.9669 8.21749C5.8222 8.07822 1.97447 15.4322 2.97616 17.1919Z" fill="#111111"/>
<path d="M2.78759 11.04C2.96366 11.0148 3.14257 11.001 3.32289 10.9985C3.67371 10.9937 4.02692 11.0321 4.37246 11.1114C4.89366 10.4663 5.50229 9.84197 6.18995 9.28835C5.871 9.12431 5.52592 9.02375 5.17576 8.99516C4.49987 8.93998 3.86274 9.15656 3.39569 9.58321C3.20997 9.75286 3.01489 10.092 2.89155 10.5135C2.8371 10.6995 2.80337 10.8786 2.78759 11.04Z" stroke="#111111" stroke-width="0.5"/>
<path d="M3.33952 12.2185C3.41541 12.2175 3.4917 12.2193 3.56817 12.2239C3.0413 13.042 2.64304 13.8685 2.39227 14.6218C2.25428 15.0363 2.15753 15.439 2.1115 15.8134C1.85194 15.6106 1.63838 15.3757 1.47898 15.1238C1.31122 14.8587 1.20787 14.582 1.16728 14.3109C1.12679 14.0405 1.14893 13.7779 1.22823 13.5354C1.30752 13.293 1.44483 13.068 1.63729 12.8738C1.83023 12.6791 2.07714 12.5169 2.36914 12.4022C2.66134 12.2874 2.99083 12.2233 3.33952 12.2185Z" stroke="#111111" stroke-width="0.5"/>
<path d="M22.4039 15.4284C22.2371 15.6308 22.0415 15.7952 21.8277 15.9176C21.763 15.5274 21.6378 15.0908 21.4626 14.6321C21.4199 14.5202 21.3739 14.4063 21.3247 14.2908C21.8604 13.8751 22.2781 13.3216 22.5215 12.6859L22.5222 12.684C22.5448 12.7182 22.5673 12.7539 22.5895 12.7908C22.7971 13.1358 22.9208 13.4926 22.9357 13.747C22.9725 14.3717 22.7766 14.9761 22.4039 15.4284Z" stroke="#111111" stroke-width="0.5"/>
<path d="M21.3819 12.2497C21.2502 12.594 21.0393 12.9059 20.7685 13.1624C20.4652 12.6198 20.1024 12.0631 19.6839 11.5187C20.094 10.9667 20.339 10.3076 20.3896 9.61786C20.4672 9.65981 20.5467 9.70765 20.6267 9.76139C20.971 9.9927 21.2222 10.2651 21.3244 10.4798C21.5834 11.0242 21.6077 11.6598 21.3819 12.2497Z" stroke="#111111" stroke-width="0.5"/>
<path d="M19.179 9.31204C19.1857 9.75095 19.0745 10.1771 18.8628 10.5486C18.4498 10.1056 17.995 9.67963 17.5002 9.28859C17.7142 8.56892 17.7081 7.80142 17.4798 7.09114C17.8934 7.20609 18.243 7.39159 18.4323 7.57746C18.9011 8.03786 19.169 8.66233 19.179 9.31204Z" stroke="#111111" stroke-width="0.5"/>
<path d="M16.2485 7.27516C16.4132 7.67065 16.4699 8.10509 16.4163 8.53289C15.7711 8.14032 15.0725 7.81313 14.3236 7.58045C14.2357 7.01399 14.0142 6.47621 13.6774 6.01245C13.7633 5.99062 13.8546 5.97175 13.9504 5.95685C14.3647 5.8924 14.7414 5.921 14.9695 6.01058C15.5428 6.23572 16.0042 6.68844 16.2485 7.27516Z" stroke="#111111" stroke-width="0.5"/>
<path d="M12.4572 6.45493C12.6914 6.69193 12.871 6.97321 12.9881 7.27911C12.6599 7.23229 12.3236 7.20393 11.9795 7.19602C11.5165 7.18536 11.0664 7.21394 10.6299 7.2768C10.3582 6.84892 9.99927 6.48135 9.57549 6.19919C9.64325 6.15312 9.71631 6.10771 9.79422 6.06398C10.1609 5.85814 10.5292 5.74893 10.7821 5.75001C11.4111 5.75268 12.0137 6.00599 12.4572 6.45493Z" stroke="#111111" stroke-width="0.5"/>
<path d="M8.61085 7.05025C8.88154 7.1809 9.12277 7.35964 9.32441 7.57517C8.59097 7.80616 7.90442 8.13182 7.26958 8.52343C6.80686 8.18929 6.27974 7.95546 5.72487 7.84289C5.78453 7.75718 5.85312 7.66899 5.93038 7.58077C6.211 7.26033 6.52639 7.03076 6.76979 6.9456C7.37258 6.73469 8.03482 6.77221 8.61085 7.05025Z" stroke="#111111" stroke-width="0.5"/>
<path d="M2.97616 17.1919C3.97784 18.9516 20.4723 18.6089 21.0775 17.0738C21.6826 15.5387 18.1115 8.35676 11.9669 8.21749C5.8222 8.07822 1.97447 15.4322 2.97616 17.1919Z" stroke="#111111" stroke-width="0.5"/>
</svg>
