<svg width="24" height="24" viewBox="0 0 24 24" fill="none" xmlns="http://www.w3.org/2000/svg">
<path d="M12.0007 2.52002C9.01072 2.52002 6.28072 3.60002 4.17072 5.40002C3.46072 6.01002 3.31072 7.05002 3.77072 7.86002L11.1307 20.97C11.5107 21.65 12.4907 21.65 12.8707 20.97L20.2307 7.86002C20.6907 7.05002 20.5407 6.00002 19.8307 5.40002C17.7307 3.61002 14.9907 2.52002 12.0007 2.52002ZM7.00072 7.52002C7.00072 6.42002 7.90072 5.52002 9.00072 5.52002C10.1007 5.52002 11.0007 6.42002 11.0007 7.52002C11.0007 8.62002 10.1007 9.52002 9.00072 9.52002C7.90072 9.52002 7.00072 8.62002 7.00072 7.52002ZM12.0007 15.52C10.9007 15.52 10.0007 14.62 10.0007 13.52C10.0007 12.42 10.9007 11.52 12.0007 11.52C13.1007 11.52 14.0007 12.42 14.0007 13.52C14.0007 14.62 13.1007 15.52 12.0007 15.52Z" fill="#190C0A"/>
</svg>
