<svg width="24" height="24" viewBox="0 0 24 24" fill="none" xmlns="http://www.w3.org/2000/svg">
<path d="M18.38 6.8274C17.79 3.8274 15.14 1.5874 12 1.5874C8.86 1.5874 6.21 3.8274 5.62 6.8274C4.08 7.3974 3 8.8774 3 10.5874C3 12.7974 4.79 14.5874 7 14.5874C7.12 14.5874 7.23 14.5674 7.34 14.5674L11.17 21.8774C11.55 22.5974 12.58 22.5874 12.95 21.8674L16.68 14.5574C16.79 14.5674 16.89 14.5874 17 14.5874C19.21 14.5874 21 12.7974 21 10.5874C21 8.8774 19.92 7.3974 18.38 6.8274ZM12.05 19.2174L9.32 14.0074C10.15 14.3774 11.06 14.5874 12 14.5874C12.95 14.5874 13.88 14.3774 14.72 13.9874L12.05 19.2174Z" fill="#190C0A"/>
</svg>
